# Blender v2.80 (sub 45) OBJ File: 'car.blend'
# www.blender.org
o car_Cylinder
v -1.380748 0.324356 1.760307
v -1.380748 -0.689138 1.340504
v -1.380748 -0.095447 1.934195
v -1.380748 0.498246 1.340504
v -0.956001 -0.590325 0.845624
v -1.380748 -0.095447 0.746812
v -0.956001 -0.095447 0.640638
v -1.380748 0.324357 0.920700
v -0.956001 0.399434 0.845624
v -0.552601 0.312839 0.932218
v -0.552601 -0.095447 0.763101
v -0.552601 -0.503731 0.932218
v -0.552601 -0.672850 1.340504
v -0.956001 -0.795312 1.340504
v -1.380748 -0.515249 1.760307
v -0.956001 -0.590325 1.835383
v -0.552601 -0.503731 1.748789
v -0.552601 -0.095447 1.917907
v -0.956001 -0.095447 2.040369
v -0.552601 0.312838 1.748789
v -0.956001 0.399434 1.835383
v -0.956001 0.604420 1.340504
v -0.552601 0.481956 1.340504
v -1.380748 -0.515249 0.920700
v 1.377074 0.324357 0.920700
v 1.377075 -0.689138 1.340504
v 1.377074 -0.095447 0.746812
v 1.377075 0.498246 1.340504
v 0.952328 -0.590325 1.835383
v 1.377075 -0.095447 1.934195
v 0.952328 -0.095447 2.040369
v 1.377075 0.324356 1.760307
v 0.952328 0.399434 1.835383
v 0.548927 0.312838 1.748789
v 0.548927 -0.095447 1.917907
v 0.548928 -0.503731 1.748789
v 0.548927 -0.672850 1.340504
v 0.952328 -0.795312 1.340504
v 1.377074 -0.515249 0.920700
v 0.952328 -0.590325 0.845624
v 0.548927 -0.503731 0.932218
v 0.548927 -0.095447 0.763101
v 0.952328 -0.095447 0.640638
v 0.548927 0.312839 0.932218
v 0.952328 0.399434 0.845624
v 0.952328 0.604419 1.340504
v 0.548927 0.481956 1.340504
v 1.377075 -0.515249 1.760307
v -1.380748 0.324357 -0.937712
v -1.380748 -0.689137 -1.357515
v -1.380748 -0.095447 -0.763823
v -1.380748 0.498245 -1.357515
v -0.956001 -0.590325 -1.852394
v -1.380748 -0.095447 -1.951206
v -0.956001 -0.095446 -2.057380
v -1.380748 0.324357 -1.777318
v -0.956001 0.399434 -1.852394
v -0.552601 0.312839 -1.765800
v -0.552601 -0.095447 -1.934918
v -0.552601 -0.503731 -1.765801
v -0.552601 -0.672850 -1.357515
v -0.956001 -0.795311 -1.357515
v -1.380748 -0.515249 -0.937712
v -0.956001 -0.590325 -0.862635
v -0.552601 -0.503731 -0.949229
v -0.552601 -0.095447 -0.780112
v -0.956001 -0.095447 -0.657649
v -0.552601 0.312839 -0.949229
v -0.956001 0.399434 -0.862635
v -0.956001 0.604420 -1.357515
v -0.552601 0.481957 -1.357515
v -1.380748 -0.515249 -1.777318
v 1.377074 0.324357 -1.777318
v 1.377075 -0.689137 -1.357515
v 1.377074 -0.095447 -1.951206
v 1.377075 0.498246 -1.357515
v 0.952328 -0.590325 -0.862635
v 1.377075 -0.095447 -0.763824
v 0.952328 -0.095447 -0.657649
v 1.377075 0.324357 -0.937712
v 0.952328 0.399434 -0.862635
v 0.548927 0.312839 -0.949229
v 0.548927 -0.095447 -0.780112
v 0.548928 -0.503731 -0.949229
v 0.548927 -0.672850 -1.357515
v 0.952328 -0.795311 -1.357515
v 1.377074 -0.515249 -1.777318
v 0.952328 -0.590325 -1.852394
v 0.548927 -0.503731 -1.765800
v 0.548927 -0.095447 -1.934918
v 0.952328 -0.095446 -2.057380
v 0.548927 0.312839 -1.765800
v 0.952328 0.399434 -1.852394
v 0.952328 0.604419 -1.357515
v 0.548927 0.481957 -1.357515
v 1.377075 -0.515249 -0.937712
v -0.655550 -0.277742 0.539121
v -0.828493 0.398891 0.684915
v -0.940482 0.418345 -0.588042
v -0.458673 1.283174 0.564391
v -0.537686 1.283174 -0.426913
v -0.428048 -0.070318 1.629157
v -0.464399 -0.274208 0.723729
v 0.440684 -0.070318 1.629157
v 0.509516 0.538791 1.154618
v -0.447048 0.454109 1.590161
v 0.459684 0.454109 1.590161
v -0.448014 0.742291 -1.127528
v 0.471310 1.283174 0.564391
v -0.496880 0.538791 1.154618
v 0.550323 1.283174 -0.426913
v -0.469624 0.671276 -1.508601
v 0.482260 0.671276 -1.508601
v 0.454024 0.054818 -1.642567
v -0.441389 0.054818 -1.642567
v -0.448872 -0.326446 -0.695971
v -0.704981 -0.314519 -0.488212
v 0.460650 0.742291 -1.127528
v 0.461508 -0.326446 -0.695971
v 0.477036 -0.274208 0.723729
v 0.668186 -0.277742 0.539121
v 0.717617 -0.314519 -0.488212
v 0.953118 0.418345 -0.588042
v 0.841129 0.398891 0.684915
vt 0.209947 0.456692
vt 0.125567 0.263214
vt 0.241901 0.375309
vt 0.129805 0.491643
vt 0.124436 0.570947
vt 0.244305 0.631444
vt 0.124436 0.631444
vt 0.244305 0.690874
vt 0.124436 0.690874
vt 0.009233 0.690874
vt 0.009233 0.631444
vt 0.009233 0.570947
vt 0.009233 0.508357
vt 0.124436 0.508357
vt 0.244305 0.508357
vt 0.244305 0.932575
vt 0.124436 0.995127
vt 0.124436 0.932575
vt 0.009233 0.932575
vt 0.009233 0.871660
vt 0.124436 0.871660
vt 0.244305 0.871660
vt 0.009233 0.811345
vt 0.124436 0.811345
vt 0.244305 0.811345
vt 0.244305 0.751007
vt 0.124436 0.751007
vt 0.009233 0.751007
vt 0.206950 0.295168
vt 0.048423 0.459689
vt 0.013471 0.379548
vt 0.045426 0.298165
vt 0.048585 0.459506
vt 0.125867 0.262680
vt 0.130113 0.491518
vt 0.013572 0.379222
vt 0.045583 0.297694
vt 0.210398 0.456504
vt 0.242409 0.374976
vt 0.207395 0.294691
vt 0.244305 0.570947
vt 0.244305 0.995127
vt 0.009233 0.995127
vt 0.209947 0.456692
vt 0.125567 0.263214
vt 0.241901 0.375309
vt 0.129805 0.491643
vt 0.124436 0.570947
vt 0.244305 0.631444
vt 0.124436 0.631444
vt 0.244305 0.690874
vt 0.124436 0.690874
vt 0.009233 0.690874
vt 0.009233 0.631444
vt 0.009233 0.570947
vt 0.009233 0.508357
vt 0.124436 0.508357
vt 0.244305 0.508357
vt 0.244305 0.932575
vt 0.124436 0.995127
vt 0.124436 0.932575
vt 0.009233 0.932575
vt 0.009233 0.871660
vt 0.124436 0.871660
vt 0.244305 0.871660
vt 0.009233 0.811345
vt 0.124436 0.811345
vt 0.244305 0.811345
vt 0.244305 0.751007
vt 0.124436 0.751007
vt 0.009233 0.751007
vt 0.206950 0.295168
vt 0.048423 0.459689
vt 0.013471 0.379548
vt 0.045426 0.298165
vt 0.048585 0.459506
vt 0.125867 0.262680
vt 0.130113 0.491518
vt 0.013572 0.379222
vt 0.045583 0.297694
vt 0.210398 0.456504
vt 0.242409 0.374976
vt 0.207395 0.294691
vt 0.244305 0.570947
vt 0.244305 0.995127
vt 0.009233 0.995127
vt 0.209947 0.456692
vt 0.125567 0.263214
vt 0.241901 0.375309
vt 0.129805 0.491643
vt 0.124436 0.570947
vt 0.244305 0.631444
vt 0.124436 0.631444
vt 0.244305 0.690874
vt 0.124436 0.690874
vt 0.009233 0.690874
vt 0.009233 0.631444
vt 0.009233 0.570947
vt 0.009233 0.508357
vt 0.124436 0.508357
vt 0.244305 0.508357
vt 0.244305 0.932575
vt 0.124436 0.995127
vt 0.124436 0.932575
vt 0.009233 0.932575
vt 0.009233 0.871660
vt 0.124436 0.871660
vt 0.244305 0.871660
vt 0.009233 0.811345
vt 0.124436 0.811345
vt 0.244305 0.811345
vt 0.244305 0.751007
vt 0.124436 0.751007
vt 0.009233 0.751007
vt 0.206950 0.295168
vt 0.048423 0.459689
vt 0.013471 0.379548
vt 0.045426 0.298165
vt 0.048585 0.459506
vt 0.125867 0.262680
vt 0.130113 0.491518
vt 0.013572 0.379222
vt 0.045583 0.297694
vt 0.210398 0.456504
vt 0.242409 0.374976
vt 0.207395 0.294691
vt 0.244305 0.570947
vt 0.244305 0.995127
vt 0.009233 0.995127
vt 0.209947 0.456692
vt 0.125567 0.263214
vt 0.241901 0.375309
vt 0.129805 0.491643
vt 0.124436 0.570947
vt 0.244305 0.631444
vt 0.124436 0.631444
vt 0.244305 0.690874
vt 0.124436 0.690874
vt 0.009233 0.690874
vt 0.009233 0.631444
vt 0.009233 0.570947
vt 0.009233 0.508357
vt 0.124436 0.508357
vt 0.244305 0.508357
vt 0.244305 0.932575
vt 0.124436 0.995127
vt 0.124436 0.932575
vt 0.009233 0.932575
vt 0.009233 0.871660
vt 0.124436 0.871660
vt 0.244305 0.871660
vt 0.009233 0.811345
vt 0.124436 0.811345
vt 0.244305 0.811345
vt 0.244305 0.751007
vt 0.124436 0.751007
vt 0.009233 0.751007
vt 0.206950 0.295168
vt 0.048423 0.459689
vt 0.013471 0.379548
vt 0.045426 0.298165
vt 0.048585 0.459506
vt 0.125867 0.262680
vt 0.130113 0.491518
vt 0.013572 0.379222
vt 0.045583 0.297694
vt 0.210398 0.456504
vt 0.242409 0.374976
vt 0.207395 0.294691
vt 0.244305 0.570947
vt 0.244305 0.995127
vt 0.009233 0.995127
vt 0.496926 0.616356
vt 0.486374 0.778508
vt 0.730742 0.777219
vt 0.492949 0.979326
vt 0.715318 0.980146
vt 0.987898 0.527775
vt 0.785702 0.536213
vt 0.987898 0.326137
vt 0.211796 0.233665
vt 0.122961 0.033489
vt 0.122961 0.223237
vt 0.878452 0.852055
vt 0.401996 0.228695
vt 0.211796 0.023061
vt 0.017674 0.219261
vt 0.017674 0.037465
vt 0.364505 0.811801
vt 0.600469 0.242204
vt 0.401996 0.028031
vt 0.855290 0.028765
vt 0.777680 0.033287
vt 0.855290 0.227961
vt 0.981594 0.222053
vt 0.981594 0.034673
vt 0.458465 0.619814
vt 0.257627 0.664645
vt 0.804515 0.610903
vt 0.730566 0.622710
vt 0.468662 0.532609
vt 0.515057 0.592053
vt 0.957166 0.838086
vt 0.988091 0.694301
vt 0.264762 0.788604
vt 0.600469 0.014522
vt 0.777680 0.223439
vt 0.468662 0.321304
vt 0.257273 0.530872
vt 0.257273 0.323041
vt 0.785702 0.317700
vt 0.744476 0.580580
vt 0.499079 0.617162
vt 0.731194 0.623231
vt 0.730122 0.779551
vt 0.487900 0.779895
vt 0.715507 0.981304
vt 0.878624 0.852662
vt 0.493417 0.981304
vt 0.365090 0.812532
vt 0.458696 0.619940
vt 0.254869 0.665552
vt 0.805083 0.611660
vt 0.515057 0.261860
vt 0.957847 0.838556
vt 0.987860 0.694744
vt 0.263605 0.787894
vt 0.744476 0.273333
vn -1.0000 0.0000 0.0000
vn 0.0234 -0.7069 -0.7069
vn -0.2425 -0.0000 -0.9701
vn 0.0234 -0.0000 -0.9997
vn -0.2425 0.6860 -0.6860
vn 0.0234 0.7069 -0.7069
vn 0.2905 0.6766 -0.6766
vn 0.2905 -0.0000 -0.9569
vn 0.2905 -0.6766 -0.6766
vn 0.2905 -0.9569 0.0000
vn 0.0234 -0.9997 0.0000
vn -0.2425 -0.9701 0.0000
vn -0.2425 -0.6860 0.6860
vn 0.0234 -0.7069 0.7069
vn 0.2905 -0.6766 0.6766
vn 0.2905 0.0000 0.9569
vn 0.0234 -0.0000 0.9997
vn -0.2425 -0.0000 0.9701
vn 0.2905 0.6766 0.6766
vn 0.0234 0.7069 0.7069
vn -0.2425 0.6860 0.6860
vn -0.2425 0.9701 0.0000
vn 0.0234 0.9997 0.0000
vn 0.2905 0.9569 0.0000
vn 1.0000 0.0000 0.0000
vn -0.2425 -0.6860 -0.6860
vn -0.0234 -0.7069 0.7069
vn 0.2425 -0.0000 0.9701
vn -0.0234 -0.0000 0.9997
vn 0.2425 0.6860 0.6860
vn -0.0234 0.7069 0.7069
vn -0.2905 0.6766 0.6766
vn -0.2905 -0.0000 0.9569
vn -0.2905 -0.6766 0.6766
vn -0.2905 -0.9569 -0.0000
vn -0.0234 -0.9997 0.0000
vn 0.2425 -0.9701 0.0000
vn 0.2425 -0.6860 -0.6860
vn -0.0234 -0.7069 -0.7069
vn -0.2905 -0.6766 -0.6766
vn -0.2905 -0.0000 -0.9569
vn -0.0234 -0.0000 -0.9997
vn 0.2425 -0.0000 -0.9701
vn -0.2905 0.6766 -0.6766
vn -0.0234 0.7069 -0.7069
vn 0.2425 0.6860 -0.6860
vn 0.2425 0.9701 0.0000
vn -0.0234 0.9997 0.0000
vn -0.2905 0.9569 -0.0000
vn 0.2425 -0.6860 0.6860
vn -0.9587 -0.2751 0.0725
vn -0.9613 0.1847 0.2044
vn -0.9810 0.1805 -0.0719
vn -0.8989 0.4002 0.1784
vn -0.8974 0.4304 -0.0971
vn 0.0000 -0.9756 0.2197
vn -0.0035 -0.9940 0.1089
vn 0.0000 0.9816 0.1909
vn -0.7782 0.4450 -0.4432
vn 0.0000 0.6213 0.7836
vn 0.0000 0.0742 0.9972
vn -0.8015 0.3962 0.4479
vn 0.0000 1.0000 0.0000
vn 0.0000 0.9831 -0.1832
vn 0.0000 0.2124 -0.9772
vn -0.9960 -0.0693 0.0556
vn -0.9958 -0.0551 0.0737
vn -0.9957 -0.0534 0.0758
vn -0.6101 -0.2962 -0.7348
vn -0.6101 -0.2962 -0.7349
vn -0.6100 -0.2961 -0.7350
vn -0.0038 -0.9921 -0.1254
vn -0.0169 -0.9992 0.0366
vn -0.9959 -0.0603 0.0677
vn -0.9998 -0.0171 0.0099
vn -0.9994 -0.0271 0.0233
vn -1.0000 -0.0029 -0.0091
vn -0.7127 -0.3505 0.6076
vn -0.7023 -0.3440 0.6232
vn -0.6778 -0.3287 0.6577
vn -0.6562 -0.3154 0.6855
vn -0.9937 -0.0280 0.1083
vn 0.0000 0.7916 -0.6111
vn 0.0038 -0.9921 -0.1254
vn 0.0000 -0.9276 -0.3736
vn 0.0035 -0.9940 0.1089
vn 0.9587 -0.2751 0.0725
vn 0.9527 -0.2985 0.0565
vn 0.9810 0.1805 -0.0719
vn 0.9613 0.1847 0.2044
vn 0.8974 0.4304 -0.0971
vn 0.7782 0.4450 -0.4432
vn 0.8989 0.4002 0.1784
vn 0.8015 0.3962 0.4479
vn 0.9960 -0.0693 0.0556
vn 0.9957 -0.0534 0.0758
vn 0.9958 -0.0551 0.0737
vn 0.6101 -0.2962 -0.7348
vn 0.6101 -0.2962 -0.7349
vn 0.6100 -0.2961 -0.7350
vn 0.0169 -0.9992 0.0366
vn 0.9959 -0.0603 0.0677
vn 0.9994 -0.0271 0.0233
vn 0.9998 -0.0171 0.0099
vn 1.0000 -0.0029 -0.0091
vn 0.7127 -0.3505 0.6076
vn 0.6778 -0.3287 0.6577
vn 0.7023 -0.3440 0.6232
vn 0.6562 -0.3154 0.6855
vn 0.9937 -0.0280 0.1083
vn -0.9527 -0.2985 0.0565
s 1
f 1/1/1 2/2/1 3/3/1
f 2/2/1 1/1/1 4/4/1
f 5/5/2 6/6/3 7/7/4
f 7/7/4 8/8/5 9/9/6
f 7/7/4 10/10/7 11/11/8
f 7/7/4 12/12/9 5/5/2
f 5/5/2 13/13/10 14/14/11
f 2/15/12 5/5/2 14/14/11
f 15/16/13 14/17/11 16/18/14
f 14/17/11 17/19/15 16/18/14
f 16/18/14 18/20/16 19/21/17
f 3/22/18 16/18/14 19/21/17
f 19/21/17 20/23/19 21/24/20
f 1/25/21 19/21/17 21/24/20
f 4/26/22 21/24/20 22/27/23
f 4/26/22 9/9/6 8/8/5
f 23/28/24 9/9/6 22/27/23
f 22/27/23 20/23/19 23/28/24
f 2/2/1 15/29/1 3/3/1
f 4/4/1 8/30/1 2/2/1
f 8/30/1 6/31/1 2/2/1
f 6/31/1 24/32/1 2/2/1
f 20/33/25 13/34/25 23/35/25
f 20/33/25 18/36/25 13/34/25
f 13/34/25 18/36/25 17/37/25
f 23/35/25 13/34/25 10/38/25
f 10/38/25 13/34/25 11/39/25
f 12/40/25 11/39/25 13/34/25
f 5/5/2 24/41/26 6/6/3
f 7/7/4 6/6/3 8/8/5
f 7/7/4 9/9/6 10/10/7
f 7/7/4 11/11/8 12/12/9
f 5/5/2 12/12/9 13/13/10
f 2/15/12 24/41/26 5/5/2
f 15/16/13 2/42/12 14/17/11
f 14/17/11 13/43/10 17/19/15
f 16/18/14 17/19/15 18/20/16
f 3/22/18 15/16/13 16/18/14
f 19/21/17 18/20/16 20/23/19
f 1/25/21 3/22/18 19/21/17
f 4/26/22 1/25/21 21/24/20
f 4/26/22 22/27/23 9/9/6
f 23/28/24 10/10/7 9/9/6
f 22/27/23 21/24/20 20/23/19
f 25/44/25 26/45/25 27/46/25
f 26/45/25 25/44/25 28/47/25
f 29/48/27 30/49/28 31/50/29
f 31/50/29 32/51/30 33/52/31
f 31/50/29 34/53/32 35/54/33
f 31/50/29 36/55/34 29/48/27
f 29/48/27 37/56/35 38/57/36
f 26/58/37 29/48/27 38/57/36
f 39/59/38 38/60/36 40/61/39
f 38/60/36 41/62/40 40/61/39
f 40/61/39 42/63/41 43/64/42
f 27/65/43 40/61/39 43/64/42
f 43/64/42 44/66/44 45/67/45
f 25/68/46 43/64/42 45/67/45
f 28/69/47 45/67/45 46/70/48
f 28/69/47 33/52/31 32/51/30
f 47/71/49 33/52/31 46/70/48
f 46/70/48 44/66/44 47/71/49
f 26/45/25 39/72/25 27/46/25
f 28/47/25 32/73/25 26/45/25
f 32/73/25 30/74/25 26/45/25
f 30/74/25 48/75/25 26/45/25
f 44/76/1 37/77/1 47/78/1
f 44/76/1 42/79/1 37/77/1
f 37/77/1 42/79/1 41/80/1
f 47/78/1 37/77/1 34/81/1
f 34/81/1 37/77/1 35/82/1
f 36/83/1 35/82/1 37/77/1
f 29/48/27 48/84/50 30/49/28
f 31/50/29 30/49/28 32/51/30
f 31/50/29 33/52/31 34/53/32
f 31/50/29 35/54/33 36/55/34
f 29/48/27 36/55/34 37/56/35
f 26/58/37 48/84/50 29/48/27
f 39/59/38 26/85/37 38/60/36
f 38/60/36 37/86/35 41/62/40
f 40/61/39 41/62/40 42/63/41
f 27/65/43 39/59/38 40/61/39
f 43/64/42 42/63/41 44/66/44
f 25/68/46 27/65/43 43/64/42
f 28/69/47 25/68/46 45/67/45
f 28/69/47 46/70/48 33/52/31
f 47/71/49 34/53/32 33/52/31
f 46/70/48 45/67/45 44/66/44
f 49/87/1 50/88/1 51/89/1
f 50/88/1 49/87/1 52/90/1
f 53/91/2 54/92/3 55/93/4
f 55/93/4 56/94/5 57/95/6
f 55/93/4 58/96/7 59/97/8
f 55/93/4 60/98/9 53/91/2
f 53/91/2 61/99/10 62/100/11
f 50/101/12 53/91/2 62/100/11
f 63/102/13 62/103/11 64/104/14
f 62/103/11 65/105/15 64/104/14
f 64/104/14 66/106/16 67/107/17
f 51/108/18 64/104/14 67/107/17
f 67/107/17 68/109/19 69/110/20
f 49/111/21 67/107/17 69/110/20
f 52/112/22 69/110/20 70/113/23
f 52/112/22 57/95/6 56/94/5
f 71/114/24 57/95/6 70/113/23
f 70/113/23 68/109/19 71/114/24
f 50/88/1 63/115/1 51/89/1
f 52/90/1 56/116/1 50/88/1
f 56/116/1 54/117/1 50/88/1
f 54/117/1 72/118/1 50/88/1
f 68/119/25 61/120/25 71/121/25
f 68/119/25 66/122/25 61/120/25
f 61/120/25 66/122/25 65/123/25
f 71/121/25 61/120/25 58/124/25
f 58/124/25 61/120/25 59/125/25
f 60/126/25 59/125/25 61/120/25
f 53/91/2 72/127/26 54/92/3
f 55/93/4 54/92/3 56/94/5
f 55/93/4 57/95/6 58/96/7
f 55/93/4 59/97/8 60/98/9
f 53/91/2 60/98/9 61/99/10
f 50/101/12 72/127/26 53/91/2
f 63/102/13 50/128/12 62/103/11
f 62/103/11 61/129/10 65/105/15
f 64/104/14 65/105/15 66/106/16
f 51/108/18 63/102/13 64/104/14
f 67/107/17 66/106/16 68/109/19
f 49/111/21 51/108/18 67/107/17
f 52/112/22 49/111/21 69/110/20
f 52/112/22 70/113/23 57/95/6
f 71/114/24 58/96/7 57/95/6
f 70/113/23 69/110/20 68/109/19
f 73/130/25 74/131/25 75/132/25
f 74/131/25 73/130/25 76/133/25
f 77/134/27 78/135/28 79/136/29
f 79/136/29 80/137/30 81/138/31
f 79/136/29 82/139/32 83/140/33
f 79/136/29 84/141/34 77/134/27
f 77/134/27 85/142/35 86/143/36
f 74/144/37 77/134/27 86/143/36
f 87/145/38 86/146/36 88/147/39
f 86/146/36 89/148/40 88/147/39
f 88/147/39 90/149/41 91/150/42
f 75/151/43 88/147/39 91/150/42
f 91/150/42 92/152/44 93/153/45
f 73/154/46 91/150/42 93/153/45
f 76/155/47 93/153/45 94/156/48
f 76/155/47 81/138/31 80/137/30
f 95/157/49 81/138/31 94/156/48
f 94/156/48 92/152/44 95/157/49
f 74/131/25 87/158/25 75/132/25
f 76/133/25 80/159/25 74/131/25
f 80/159/25 78/160/25 74/131/25
f 78/160/25 96/161/25 74/131/25
f 92/162/1 85/163/1 95/164/1
f 92/162/1 90/165/1 85/163/1
f 85/163/1 90/165/1 89/166/1
f 95/164/1 85/163/1 82/167/1
f 82/167/1 85/163/1 83/168/1
f 84/169/1 83/168/1 85/163/1
f 77/134/27 96/170/50 78/135/28
f 79/136/29 78/135/28 80/137/30
f 79/136/29 81/138/31 82/139/32
f 79/136/29 83/140/33 84/141/34
f 77/134/27 84/141/34 85/142/35
f 74/144/37 96/170/50 77/134/27
f 87/145/38 74/171/37 86/146/36
f 86/146/36 85/172/35 89/148/40
f 88/147/39 89/148/40 90/149/41
f 75/151/43 87/145/38 88/147/39
f 91/150/42 90/149/41 92/152/44
f 73/154/46 75/151/43 91/150/42
f 76/155/47 73/154/46 93/153/45
f 76/155/47 94/156/48 81/138/31
f 95/157/49 82/139/32 81/138/31
f 94/156/48 93/153/45 92/152/44
f 97/173/51 98/174/52 99/175/53
f 98/174/52 100/176/54 101/177/55
f 102/178/56 103/179/57 104/180/56
f 105/181/58 106/182/58 107/183/58
f 101/177/55 108/184/59 99/175/53
f 105/181/60 109/185/60 110/186/60
f 104/187/61 107/183/61 102/188/61
f 100/176/54 98/174/52 110/189/62
f 109/185/63 111/190/63 100/191/63
f 112/192/64 108/193/64 113/194/64
f 112/192/65 114/195/65 115/196/65
f 103/197/66 102/198/67 110/189/68
f 108/184/69 116/199/70 99/175/70
f 99/175/70 116/199/70 117/200/71
f 116/201/72 103/179/57 117/202/73
f 112/203/74 115/204/75 108/184/76
f 116/199/77 108/184/76 115/204/75
f 110/189/78 98/174/79 103/197/80
f 98/174/79 97/173/81 103/197/80
f 106/205/82 110/189/68 102/198/67
f 108/193/83 101/206/83 118/207/83
f 119/208/84 115/209/85 114/210/85
f 120/211/86 116/201/72 119/208/84
f 97/212/73 117/202/73 103/179/57
f 121/213/87 122/214/88 123/215/89
f 124/216/90 123/215/89 111/217/91
f 103/179/57 120/211/86 104/180/56
f 106/182/58 105/181/58 110/186/58
f 111/217/91 123/215/89 118/218/92
f 100/191/60 110/186/60 109/185/60
f 107/183/61 106/182/61 102/188/61
f 109/219/93 105/220/94 124/216/90
f 101/206/63 100/191/63 111/190/63
f 113/194/64 108/193/64 118/207/64
f 114/195/65 112/192/65 113/194/65
f 120/221/95 105/220/96 104/222/97
f 118/218/98 123/215/99 119/223/99
f 123/215/99 122/214/100 119/223/99
f 119/208/84 122/224/101 120/211/86
f 113/225/102 118/218/103 114/226/104
f 119/223/105 114/226/104 118/218/103
f 105/220/106 120/221/107 124/216/108
f 124/216/108 120/221/107 121/213/109
f 107/227/110 104/222/97 105/220/96
f 111/190/83 118/207/83 101/206/83
f 103/179/57 116/201/72 120/211/86
f 119/208/84 116/201/72 115/209/85
f 121/228/101 120/211/86 122/224/101
f 97/173/51 99/175/53 117/200/111
f 98/174/52 101/177/55 99/175/53
f 121/213/87 123/215/89 124/216/90
f 124/216/90 111/217/91 109/219/93
