mtllib d20.mtl
v -1 1.6180339887 0
v 1 1.6180339887 0
v -1 -1.6180339887 0
v 1 -1.6180339887 0
v 0 -1 1.6180339887
v 0 1 1.6180339887
v 0 -1 -1.6180339887
v 0 1 -1.6180339887
v 1.6180339887 0 -1
v 1.6180339887 0 1
v -1.6180339887 0 -1
v -1.6180339887 0 1
vt 0.000000 0.750000
vt 0.200000 0.750000
vt 0.000000 1.000000
vt 0.200000 0.750000
vt 0.400000 0.750000
vt 0.200000 1.000000
vt 0.400000 0.750000
vt 0.600000 0.750000
vt 0.400000 1.000000
vt 0.600000 0.750000
vt 0.800000 0.750000
vt 0.600000 1.000000
vt 0.800000 0.750000
vt 1.000000 0.750000
vt 0.800000 1.000000
vt 0.000000 0.500000
vt 0.200000 0.500000
vt 0.000000 0.750000
vt 0.200000 0.500000
vt 0.400000 0.500000
vt 0.200000 0.750000
vt 0.400000 0.500000
vt 0.600000 0.500000
vt 0.400000 0.750000
vt 0.600000 0.500000
vt 0.800000 0.500000
vt 0.600000 0.750000
vt 0.800000 0.500000
vt 1.000000 0.500000
vt 0.800000 0.750000
vt 0.000000 0.250000
vt 0.200000 0.250000
vt 0.000000 0.500000
vt 0.200000 0.250000
vt 0.400000 0.250000
vt 0.200000 0.500000
vt 0.400000 0.250000
vt 0.600000 0.250000
vt 0.400000 0.500000
vt 0.600000 0.250000
vt 0.800000 0.250000
vt 0.600000 0.500000
vt 0.800000 0.250000
vt 1.000000 0.250000
vt 0.800000 0.500000
vt 0.000000 0.000000
vt 0.200000 0.000000
vt 0.000000 0.250000
vt 0.200000 0.000000
vt 0.400000 0.000000
vt 0.200000 0.250000
vt 0.400000 0.000000
vt 0.600000 0.000000
vt 0.400000 0.250000
vt 0.600000 0.000000
vt 0.800000 0.000000
vt 0.600000 0.250000
vt 0.800000 0.000000
vt 1.000000 0.000000
vt 0.800000 0.250000
f 1/1 12/2 6/3
f 1/4 6/5 2/6
f 1/7 2/8 8/9
f 1/10 8/11 11/12
f 1/13 11/14 12/15
f 2/16 6/17 10/18
f 6/19 12/20 5/21
f 12/22 11/23 3/24
f 11/25 8/26 7/27
f 8/28 2/29 9/30
f 4/31 10/32 5/33
f 4/34 5/35 3/36
f 4/37 3/38 7/39
f 4/40 7/41 9/42
f 4/43 9/44 10/45
f 5/46 10/47 6/48
f 3/49 5/50 12/51
f 7/52 3/53 11/54
f 9/55 7/56 8/57
f 10/58 9/59 2/60
